<svg width="29" height="25" viewBox="0 0 29 25" fill="none" xmlns="http://www.w3.org/2000/svg">
<path d="M24 22.0294C24 20.6649 22.8939 19.5588 21.5294 19.5588H14C12.8954 19.5588 12 20.4542 12 21.5588V22.5C12 23.6046 12.8954 24.5 14 24.5H21.5294C22.8939 24.5 24 23.3939 24 22.0294Z" fill="#FCD34D"/>
<path d="M3.52945 22.0294C3.52945 23.3939 4.63557 24.5 6.00004 24.5H9.4118C10.0615 24.5 10.5883 23.9733 10.5883 23.3235V20.7353C10.5883 20.0855 10.0616 19.5588 9.4118 19.5588H6.00004C4.63557 19.5588 3.52945 20.6649 3.52945 22.0294Z" fill="#FDE79D"/>
<path d="M24 2.97059C24 1.60612 22.8939 0.5 21.5294 0.5H14C12.8954 0.5 12 1.39543 12 2.5V3.44118C12 4.54575 12.8954 5.44118 14 5.44118H21.5294C22.8939 5.44118 24 4.33506 24 2.97059Z" fill="#FCD34D"/>
<path d="M3.52945 2.9706C3.52945 4.33507 4.63557 5.44119 6.00004 5.44119H9.4118C10.0615 5.44119 10.5883 4.91447 10.5883 4.26472V1.67649C10.5883 1.02674 10.0616 0.500016 9.4118 0.500017L6.00004 0.500017C4.63557 0.500017 3.52945 1.60614 3.52945 2.9706Z" fill="#FDE79D"/>
<path d="M26.8235 9.32343C26.8235 7.95896 25.7174 6.85284 24.3529 6.85284H14.4705C13.1061 6.85284 12 7.95896 12 9.32343C12 10.6879 13.1061 11.794 14.4705 11.794H24.3529C25.7174 11.794 26.8235 10.6879 26.8235 9.32343Z" fill="#FCD34D"/>
<path d="M0.705963 9.32354C0.705963 10.688 1.81208 11.7941 3.17655 11.7941L8.94126 11.7941C9.8509 11.7941 10.5883 11.0567 10.5883 10.1471V8.50001C10.5883 7.59036 9.8509 6.85295 8.94126 6.85295L3.17655 6.85295C1.81208 6.85295 0.705963 7.95907 0.705963 9.32354Z" fill="#FDE79D"/>
<path d="M28.2353 15.6765C28.2353 14.312 27.1292 13.2059 25.7647 13.2059H14.4706C13.1061 13.2059 12 14.312 12 15.6765C12 17.0409 13.1061 18.147 14.4706 18.147H25.7647C27.1292 18.147 28.2353 17.0409 28.2353 15.6765Z" fill="#FCD34D"/>
<path d="M0 15.6765C1.0662e-07 17.0409 1.10612 18.1471 2.47059 18.1471L8.82353 18.1471C9.79815 18.1471 10.5882 17.357 10.5882 16.3824V14.9706C10.5882 13.996 9.79815 13.2059 8.82353 13.2059L2.47059 13.2059C1.10612 13.2059 -1.0662e-07 14.312 0 15.6765Z" fill="#FDE79D"/>
</svg>